<svg width="68" height="129" viewBox="0 0 68 129" fill="none" xmlns="http://www.w3.org/2000/svg">
<path d="M61.5873 36.0851C58.9206 34.8994 55.7979 36.0999 54.6122 38.7662L47.4855 55.267H45.795V44.7157V41.8427V15.4103C45.795 12.4923 43.4295 10.1264 40.5111 10.1264C37.5928 10.1264 35.2272 12.492 35.2272 15.4103V7.99502C35.2272 5.07702 32.8617 2.71112 29.9433 2.71112C27.0253 2.71112 24.6594 5.07668 24.6594 7.99502V15.4103C24.6594 12.4923 22.2939 10.1264 19.3755 10.1264C16.4572 10.1264 14.0916 12.492 14.0916 15.4103V27.9122C14.0916 24.9942 11.7261 22.6283 8.80771 22.6283C5.8897 22.6283 3.5238 24.9939 3.5238 27.9122V41.8427V42.0738V65.8226C3.5238 71.8516 7.30951 76.9939 12.6326 79.0091V123.71H43.6589V79.0088C47.6152 77.5109 50.7208 74.2847 52.0554 70.252L52.0916 70.2574L57.141 59.0872L64.2677 43.0598C65.4541 40.3935 64.2535 37.2707 61.5873 36.0851Z" fill="#FFCAB9"/>
<path d="M21.712 15.4103C21.712 13.9905 22.275 12.7045 23.1859 11.755C22.7632 11.3144 22.2648 10.9495 21.712 10.6761V15.4103Z" fill="#FABBA7"/>
<path d="M13.5301 76.6388C9.0608 74.947 6.05832 70.6 6.05832 65.8226V59.1388C6.05832 55.8623 0.98999 55.8623 0.98999 59.1388V65.8226C0.98999 72.0931 4.5858 77.8471 10.0988 80.6546V124.71C10.0988 126.11 11.2331 127.244 12.633 127.244C14.0328 127.244 15.1671 126.11 15.1671 124.71V79.0087C15.1671 77.9555 14.5153 77.0118 13.5301 76.6388Z" fill="black"/>
<path d="M66.7376 38.108C65.9885 36.1587 64.5248 34.6179 62.6171 33.7695C58.7243 32.0392 53.9935 33.9212 52.2858 37.7613L48.3294 46.9218V15.4103C48.4369 10.0582 42.7104 6.12481 37.7616 8.09166C37.1599 -2.42141 22.5499 -2.41228 22.1258 8.09166C17.1761 6.12616 11.4513 10.0578 11.5584 15.4107V20.5939C6.61201 18.6287 0.881082 22.5594 0.990558 27.9125V46.468C0.990558 49.7445 6.05889 49.7445 6.05889 46.468V27.9122C6.20013 24.2661 11.4205 24.2728 11.5584 27.9122V45.5365C11.5584 48.813 16.6267 48.813 16.6267 45.5365C16.6267 35.4944 16.6267 25.4524 16.6267 15.4103C16.7622 11.7736 21.9863 11.7628 22.1258 15.4103V40.0539C22.1258 43.3304 27.1942 43.3304 27.1942 40.0539V7.99503C27.1942 6.47892 28.4275 5.24529 29.9439 5.24529C31.4604 5.24529 32.6936 6.47858 32.6936 7.99503V40.0539C32.6936 43.3304 37.762 43.3304 37.762 40.0539V15.4103C37.762 13.8942 38.9956 12.6606 40.512 12.6606C42.0285 12.6606 43.2618 13.8939 43.2618 15.4103V52.7943C35.7816 53.463 29.9287 59.7518 29.9287 67.2769C29.9287 70.5534 34.997 70.5534 34.997 67.2769C34.997 60.1721 41.4298 57.5504 47.4864 57.8015C48.4974 57.8015 49.412 57.2004 49.8131 56.2722L56.9291 39.7961C57.7535 38.329 58.9635 37.8637 60.5583 38.4009C62.0258 39.2254 62.491 40.4354 61.9538 42.0305C57.9569 51.0194 49.7026 69.4168 49.7026 69.4168C48.5342 72.7365 45.9399 75.4366 42.7631 76.6391C41.7778 77.0122 41.126 77.9555 41.126 79.0091V123.71C41.126 125.11 42.2603 126.244 43.6602 126.244C45.06 126.244 46.1943 125.11 46.1943 123.71V80.6505C49.9611 78.7144 52.9758 75.293 54.4452 71.2059C58.5249 62.1815 62.5606 53.139 66.5846 44.0896C67.4323 42.1816 67.4871 40.0573 66.7376 38.108Z" fill="black"/>
</svg>
