<svg width="56" height="125" viewBox="0 0 56 125" fill="none" xmlns="http://www.w3.org/2000/svg">
<path d="M43.6595 122.21V55.7423C48.9823 53.7271 52.768 48.5848 52.768 42.5558V18.5759H3.52478V42.5558C3.52478 48.5848 7.31049 53.7271 12.6332 55.7423V122.21H43.6595Z" fill="#FFCAB9"/>
<path d="M8.80835 24.091C5.88999 24.091 3.52441 21.7254 3.52441 18.807V13.7684C3.52441 10.8501 5.88999 8.4845 8.80835 8.4845C11.7267 8.4845 14.0923 10.8501 14.0923 13.7684V18.807C14.0923 21.7254 11.7267 24.091 8.80835 24.091Z" fill="#FABBA7"/>
<path d="M19.3762 24.091C16.4579 24.091 14.0923 21.7255 14.0923 18.8071V8.02435C14.0923 5.10599 16.4579 2.74042 19.3762 2.74042C22.2946 2.74042 24.6602 5.10599 24.6602 8.02435V18.8071C24.6602 21.7255 22.2946 24.091 19.3762 24.091Z" fill="#FABBA7"/>
<path d="M29.944 24.091C27.0256 24.091 24.66 21.7255 24.66 18.8071V8.02435C24.66 5.10599 27.0256 2.74042 29.944 2.74042C32.8623 2.74042 35.2279 5.10599 35.2279 8.02435V18.8071C35.2279 21.7255 32.862 24.091 29.944 24.091Z" fill="#FABBA7"/>
<path d="M40.5118 24.091C37.5935 24.091 35.2279 21.7255 35.2279 18.8071V8.02435C35.2279 5.10599 37.5935 2.74042 40.5118 2.74042C43.4302 2.74042 45.7958 5.10599 45.7958 8.02435V18.8071C45.7958 21.7255 43.4299 24.091 40.5118 24.091Z" fill="#FABBA7"/>
<path d="M52.7685 42.556V18.807C52.7685 15.8886 50.4029 13.5231 47.4845 13.5231H29.944C27.0256 13.5231 24.66 15.8886 24.66 18.807C24.66 21.7254 27.0256 24.0909 29.944 24.0909H42.2006V32.0003C37.3056 32.9068 32.4626 37.5248 32.4626 44.0099" fill="#FFCAB9"/>
<path d="M48.3295 11.0352V8.02423C48.3518 1.2445 40.1344 -2.30705 35.2279 2.2683C32.3748 -0.460488 27.5125 -0.459812 24.6604 2.2683C20.2321 -1.86847 12.832 0.595079 11.7068 6.50982C6.74557 4.41255 0.876777 8.3513 0.990645 13.7687V42.5558C0.990645 48.8263 4.58646 54.5802 10.0991 57.3881L10.9962 121.176C10.9962 122.576 12.1305 123.71 13.5304 123.71C14.9302 123.71 16.0645 122.576 16.0645 121.176L15.1674 55.7422C15.1674 54.6887 14.5157 53.7453 13.5304 53.3723C9.06146 51.6805 6.05898 47.3335 6.05898 42.5558V26.1246C8.71613 27.1889 12.092 26.4905 14.0923 24.5632C16.9454 27.292 21.808 27.2917 24.6601 24.5632C26.0525 25.8425 27.9082 26.6253 29.944 26.6253H39.6661V30.0792C34.6362 31.917 29.9284 36.9752 29.9284 44.01C29.9284 45.4096 31.0627 46.5442 32.4626 46.5442C33.8625 46.5442 34.9968 45.4096 34.9968 44.01C34.9968 38.7501 38.946 35.1803 42.6621 34.4921C43.8633 34.2694 44.7347 33.2219 44.7347 32.0001V24.0908C44.7347 22.6913 43.6004 21.5567 42.2006 21.5567H29.944C28.4279 21.5567 27.1942 20.323 27.1942 18.8069C27.1942 17.2908 28.4275 16.0572 29.944 16.0572H47.4845C49.0006 16.0572 50.2342 17.2905 50.2342 18.8069V42.5558C50.2342 47.3335 47.2314 51.6801 42.7628 53.3723C41.7775 53.7453 41.1257 54.6887 41.1257 55.7422L42.0228 121.176C42.0228 122.576 43.1571 123.71 44.557 123.71C45.9569 123.71 47.0912 122.576 47.0912 121.176L46.1941 57.3881C51.7067 54.5802 55.3025 48.8263 55.3025 42.5558V18.8069C55.3025 14.7817 52.2443 11.4582 48.3295 11.0352ZM40.5115 5.2745C42.0276 5.2745 43.2612 6.50779 43.2612 8.02423V10.9889H37.7621V8.02423C37.7621 6.50813 38.9953 5.2745 40.5115 5.2745ZM8.80837 21.5567C7.29227 21.5567 6.05864 20.3234 6.05864 18.8069V18.5758V13.7683C6.19717 10.1245 11.4206 10.1276 11.5578 13.7683V18.8069C11.5581 20.3234 10.3248 21.5567 8.80837 21.5567ZM19.3765 21.5567C17.8604 21.5567 16.6264 20.3234 16.6264 18.8069V13.7683V8.02423C16.765 4.38078 21.9887 4.38315 22.1259 8.02423V18.8069C22.1259 20.3234 20.8926 21.5567 19.3765 21.5567ZM27.1942 11.4896V8.02456C27.3328 4.38077 32.5562 4.38381 32.6934 8.02456V10.9892H29.9436C28.9766 10.9889 28.0501 11.1666 27.1942 11.4896Z" fill="black"/>
</svg>
