<svg width="55" height="126" viewBox="0 0 55 126" fill="none" xmlns="http://www.w3.org/2000/svg">
<path d="M42.6709 122.642V78.5304C47.9936 76.5152 51.7793 71.3729 51.7793 65.344V41.364H2.53577V65.344C2.53577 71.3729 6.32146 76.5152 11.6442 78.5304V122.642H42.6709Z" fill="#FFCAB9"/>
<path d="M30.979 44.0623C28.1093 44.5915 25.3538 42.6942 24.8243 39.8245L19.0984 8.77745C18.5693 5.90774 20.4665 3.15224 23.3362 2.62277C26.206 2.09363 28.9615 3.99089 29.4909 6.86059L35.2168 37.9077C35.7463 40.7777 33.8487 43.5332 30.979 44.0623Z" fill="#FABBA7"/>
<path d="M37.1086 43.6116C34.3011 42.8149 32.6714 39.8931 33.4679 37.0859L42.0868 6.71461C42.8835 3.90742 45.8053 2.27744 48.6125 3.07384C51.4197 3.87059 53.0496 6.79233 52.2532 9.59953L43.6343 39.9708C42.8379 42.7784 39.9162 44.4083 37.1086 43.6116Z" fill="#FABBA7"/>
<path d="M7.8197 46.8791C4.90134 46.8791 2.53577 44.5136 2.53577 41.5952V36.5566C2.53577 33.6382 4.90134 31.2726 7.8197 31.2726C10.7381 31.2726 13.1036 33.6382 13.1036 36.5566V41.5952C13.1036 44.5136 10.7381 46.8791 7.8197 46.8791Z" fill="#FABBA7"/>
<path d="M18.3876 46.8791C15.4692 46.8791 13.1036 44.5136 13.1036 41.5952V30.8124C13.1036 27.8941 15.4692 25.5285 18.3876 25.5285C21.3059 25.5285 23.6715 27.8941 23.6715 30.8124V41.5952C23.6715 44.5136 21.3059 46.8791 18.3876 46.8791Z" fill="#FABBA7"/>
<path d="M51.7798 65.3441V41.5952C51.7798 38.6768 49.4143 36.3112 46.4959 36.3112H28.9553C26.037 36.3112 23.6714 38.6768 23.6714 41.5952C23.6714 44.5135 26.037 46.8791 28.9553 46.8791H41.212V54.7884C36.3169 55.695 31.474 60.3129 31.474 66.7981" fill="#FFCAB9"/>
<path d="M42.6709 102.481C41.271 102.481 40.1367 103.616 40.1367 105.015V122.642C40.253 125.998 45.0902 125.995 45.2051 122.642V105.015C45.2051 103.616 44.0708 102.481 42.6709 102.481Z" fill="black"/>
<path d="M49.3043 0.636231C45.2284 -0.520699 40.7929 1.99015 39.6491 6.02285L34.9606 22.5446L31.9835 6.40129C31.2016 2.1618 27.1142 -0.652139 22.877 0.130749C18.6375 0.912624 15.825 4.9977 16.6065 9.23719L19.1505 23.0325C15.2796 22.6558 11.4723 25.4724 10.7181 29.2983C5.75688 27.201 -0.112237 31.1395 0.00163135 36.5572V65.3443C0.00163135 71.6148 3.59743 77.3687 9.11009 80.1766V122.642C9.11009 124.042 10.2444 125.177 11.6443 125.177C13.0441 125.177 14.1784 124.042 14.1784 122.642V78.5304C14.1784 77.4768 13.5266 76.5335 12.5414 76.1604C8.07244 74.4686 5.06996 70.1217 5.06996 65.3439V48.9128C7.72712 49.9774 11.1033 49.2783 13.1036 47.3514C15.9564 50.0802 20.819 50.0795 23.6711 47.3514C25.0635 48.6306 26.9195 49.4135 28.955 49.4135H38.6774V52.8674C33.6472 54.7052 28.9394 59.7634 28.9394 66.7982C28.9394 68.1977 30.0737 69.3324 31.4736 69.3324C32.8735 69.3324 34.0078 68.1977 34.0078 66.7982C34.0078 61.5383 37.957 57.9685 41.6734 57.2802C42.8746 57.0579 43.746 56.0101 43.746 54.7883V46.879C43.746 45.4795 42.6118 44.3448 41.2119 44.3448H28.9553C25.3179 44.2097 25.3088 38.9842 28.9553 38.8454C34.8021 38.8454 40.649 38.846 46.4958 38.8454C48.0119 38.8454 49.2455 40.0786 49.2455 41.5951V65.3439C49.2455 70.1217 46.2427 74.4683 41.7741 76.1604C40.7888 76.5335 40.1371 77.4768 40.1371 78.5304V91.9503C40.1371 93.3498 41.2714 94.4845 42.6712 94.4845C44.0711 94.4845 45.2054 93.3498 45.2054 91.9503V80.1762C50.718 77.3684 54.3139 71.6145 54.3139 65.3439V41.5951C54.3139 37.7935 51.5861 34.619 47.9855 33.9213L54.6913 10.2914C55.8678 6.14382 53.4516 1.81242 49.3043 0.636231ZM7.8197 44.3448C6.30359 44.3448 5.06996 43.1115 5.06996 41.5951V41.364V36.5565C5.2085 32.9127 10.4322 32.9157 10.5694 36.5565V41.5951C10.5698 43.1115 9.33581 44.3448 7.8197 44.3448ZM21.1372 41.5951C21.0004 45.2352 15.7766 45.2396 15.6381 41.5951V36.5565V30.8124C15.7746 27.1727 20.9987 27.1679 21.1372 30.8124V41.5951ZM26.2056 34.2778V30.8127C26.2056 29.2568 25.7467 27.8069 24.9601 26.5874L21.591 8.31813C21.316 6.82703 22.305 5.39033 23.7961 5.11529C25.2872 4.84058 26.7239 5.82958 26.9989 7.32068L31.878 33.7774H28.9553C27.9879 33.777 27.0614 33.9548 26.2056 34.2778ZM49.8155 8.90775L42.7581 33.777H37.041L44.5249 7.40617C45.1338 5.83668 46.2657 5.20516 47.921 5.51197C49.3793 5.92554 50.2295 7.44908 49.8155 8.90775Z" fill="black"/>
</svg>
