<svg width="68" height="129" fill="none" xmlns="http://www.w3.org/2000/svg"><path d="M61.587 36.085a5.284 5.284 0 0 0-6.975 2.681l-7.127 16.501h-1.69V15.41a5.284 5.284 0 0 0-10.568 0V7.995a5.284 5.284 0 0 0-10.568 0v7.415a5.284 5.284 0 0 0-10.567 0v12.502a5.284 5.284 0 0 0-10.568 0v37.911c0 6.029 3.786 11.17 9.109 13.186v44.701h31.026V79.009a14.137 14.137 0 0 0 8.396-8.757l.037.005 5.049-11.17 7.127-16.027a5.283 5.283 0 0 0-2.68-6.975Z" fill="#FFCAB9"/><path d="M21.712 15.41c0-1.42.563-2.706 1.474-3.655a5.291 5.291 0 0 0-1.474-1.079v4.734Z" fill="#FABBA7"/><path d="M13.53 76.639C9.06 74.947 6.058 70.6 6.058 65.823v-6.684c0-3.277-5.068-3.277-5.068 0v6.684c0 6.27 3.596 12.024 9.109 14.832v44.055a2.534 2.534 0 1 0 5.068 0V79.009a2.534 2.534 0 0 0-1.637-2.37Z" fill="#000"/><path d="M66.738 38.108a7.766 7.766 0 0 0-4.12-4.338c-3.894-1.73-8.625.151-10.332 3.991l-3.957 9.16v-31.51c.108-5.353-5.619-9.286-10.567-7.32-.602-10.512-15.212-10.503-15.636 0-4.95-1.965-10.675 1.967-10.568 7.32v5.183C6.612 18.629.881 22.559.991 27.913v18.555c0 3.276 5.068 3.276 5.068 0V27.912c.141-3.646 5.362-3.64 5.5 0v17.624c0 3.277 5.068 3.277 5.068 0V15.41c.135-3.636 5.36-3.647 5.499 0v24.644c0 3.276 5.068 3.276 5.068 0V7.995a2.753 2.753 0 0 1 2.75-2.75 2.752 2.752 0 0 1 2.75 2.75v32.059c0 3.276 5.068 3.276 5.068 0V15.41a2.753 2.753 0 0 1 2.75-2.75 2.753 2.753 0 0 1 2.75 2.75v37.384c-7.48.669-13.333 6.958-13.333 14.483 0 3.276 5.068 3.276 5.068 0 0-7.105 6.433-9.727 12.49-9.476a2.535 2.535 0 0 0 2.326-1.529l7.116-16.476c.825-1.467 2.035-1.932 3.63-1.395 1.467.824 1.932 2.034 1.395 3.63-3.997 8.988-12.251 27.386-12.251 27.386-1.169 3.32-3.763 6.02-6.94 7.222a2.534 2.534 0 0 0-1.637 2.37v44.701a2.534 2.534 0 1 0 5.068 0V80.65c3.767-1.936 6.782-5.357 8.251-9.444 4.08-9.025 8.116-18.067 12.14-27.116a7.77 7.77 0 0 0 .153-5.982Z" fill="#000"/></svg>