<svg width="56" height="125" fill="none" xmlns="http://www.w3.org/2000/svg"><path d="M43.66 122.21V55.742c5.322-2.015 9.108-7.157 9.108-13.186v-23.98H3.525v23.98c0 6.029 3.785 11.171 9.108 13.186v66.468H43.66Z" fill="#FFCAB9"/><path d="M8.808 24.091a5.284 5.284 0 0 1-5.284-5.284v-5.039a5.284 5.284 0 1 1 10.568 0v5.039a5.284 5.284 0 0 1-5.284 5.284Z" fill="#FABBA7"/><path d="M19.376 24.091a5.284 5.284 0 0 1-5.284-5.284V8.024a5.284 5.284 0 1 1 10.568 0v10.783a5.284 5.284 0 0 1-5.284 5.284Z" fill="#FABBA7"/><path d="M29.944 24.091a5.284 5.284 0 0 1-5.284-5.284V8.024a5.284 5.284 0 1 1 10.568 0v10.783a5.284 5.284 0 0 1-5.284 5.284Z" fill="#FABBA7"/><path d="M40.512 24.091a5.284 5.284 0 0 1-5.284-5.284V8.024a5.284 5.284 0 1 1 10.568 0v10.783a5.284 5.284 0 0 1-5.284 5.284Z" fill="#FABBA7"/><path d="M52.769 42.556V18.807a5.284 5.284 0 0 0-5.285-5.284h-17.54a5.284 5.284 0 1 0 0 10.568h12.257V32c-4.895.906-9.738 5.524-9.738 12.009" fill="#FFCAB9"/><path d="M48.33 11.035v-3.01c.022-6.78-8.196-10.332-13.102-5.757-2.853-2.728-7.716-2.728-10.568 0C20.232-1.868 12.832.595 11.707 6.51 6.746 4.413.877 8.35.99 13.769v28.787c0 6.27 3.595 12.024 9.108 14.832l.897 63.788a2.534 2.534 0 1 0 5.068 0l-.897-65.434a2.534 2.534 0 0 0-1.637-2.37C9.061 51.681 6.06 47.334 6.06 42.556V26.125c2.657 1.064 6.033.366 8.033-1.562 2.853 2.729 7.716 2.729 10.568 0a7.787 7.787 0 0 0 5.284 2.062h9.722v3.454c-5.03 1.838-9.738 6.896-9.738 13.931a2.534 2.534 0 1 0 5.069 0c0-5.26 3.949-8.83 7.665-9.518A2.534 2.534 0 0 0 44.735 32v-7.91c0-1.399-1.135-2.533-2.534-2.533H29.944a2.753 2.753 0 0 1-2.75-2.75 2.753 2.753 0 0 1 2.75-2.75h17.54a2.753 2.753 0 0 1 2.75 2.75v23.749c0 4.778-3.003 9.124-7.471 10.816a2.534 2.534 0 0 0-1.637 2.37l.897 65.434a2.534 2.534 0 1 0 5.068 0l-.897-63.788c5.513-2.808 9.108-8.562 9.108-14.832v-23.75c0-4.024-3.058-7.348-6.972-7.77Zm-7.819-5.76a2.753 2.753 0 0 1 2.75 2.75v2.964h-5.499V8.024a2.753 2.753 0 0 1 2.75-2.75ZM8.808 21.556a2.753 2.753 0 0 1-2.75-2.75v-5.039c.14-3.644 5.363-3.64 5.5 0v5.039a2.752 2.752 0 0 1-2.75 2.75Zm10.569 0a2.753 2.753 0 0 1-2.75-2.75V8.024c.138-3.643 5.362-3.64 5.499 0v10.783a2.753 2.753 0 0 1-2.75 2.75Zm7.817-10.067V8.025c.139-3.644 5.362-3.641 5.5 0v2.964h-2.75c-.967 0-1.894.178-2.75.5Z" fill="#000"/></svg>