<svg width="55" height="126" fill="none" xmlns="http://www.w3.org/2000/svg"><path d="M42.67 122.642V78.53c5.324-2.015 9.11-7.157 9.11-13.186v-23.98H2.535v23.98c0 6.029 3.785 11.171 9.108 13.186v44.112h31.027Z" fill="#FFCAB9"/><path d="M30.979 44.062a5.284 5.284 0 0 1-6.155-4.237L19.098 8.777a5.284 5.284 0 0 1 10.393-1.916l5.726 31.047a5.284 5.284 0 0 1-4.238 6.154Z" fill="#FABBA7"/><path d="M37.109 43.612a5.284 5.284 0 0 1-3.641-6.526l8.619-30.371A5.284 5.284 0 0 1 52.253 9.6l-8.619 30.37a5.284 5.284 0 0 1-6.525 3.642ZM7.82 46.88a5.284 5.284 0 0 1-5.284-5.285v-5.038a5.284 5.284 0 1 1 10.568 0v5.038A5.284 5.284 0 0 1 7.82 46.88Z" fill="#FABBA7"/><path d="M18.388 46.88a5.284 5.284 0 0 1-5.284-5.285V30.812a5.284 5.284 0 1 1 10.568 0v10.783a5.284 5.284 0 0 1-5.284 5.284Z" fill="#FABBA7"/><path d="M51.78 65.344V41.595a5.284 5.284 0 0 0-5.284-5.284h-17.54a5.284 5.284 0 1 0 0 10.568h12.256v7.91c-4.895.906-9.738 5.524-9.738 12.01" fill="#FFCAB9"/><path d="M42.67 102.481a2.534 2.534 0 0 0-2.533 2.534v17.627c.116 3.356 4.953 3.353 5.068 0v-17.627a2.534 2.534 0 0 0-2.534-2.534ZM49.304.636C45.228-.52 40.793 1.99 39.65 6.023l-4.688 16.522L31.984 6.4c-.782-4.24-4.87-7.053-9.107-6.27-4.24.782-7.052 4.867-6.27 9.106l2.544 13.795c-3.871-.376-7.679 2.44-8.433 6.266C5.757 27.201-.112 31.14.002 36.558v28.786c0 6.27 3.595 12.025 9.108 14.833v42.465a2.534 2.534 0 1 0 5.068 0V78.53a2.534 2.534 0 0 0-1.637-2.37C8.072 74.47 5.07 70.122 5.07 65.344V48.913c2.657 1.064 6.033.365 8.034-1.562 2.852 2.73 7.715 2.729 10.567 0a7.788 7.788 0 0 0 5.284 2.063h9.722v3.453c-5.03 1.838-9.738 6.896-9.738 13.931a2.534 2.534 0 1 0 5.069 0c0-5.26 3.949-8.83 7.665-9.518a2.534 2.534 0 0 0 2.073-2.492V46.88c0-1.4-1.134-2.534-2.534-2.534H28.955c-3.637-.135-3.646-5.36 0-5.5h17.54a2.753 2.753 0 0 1 2.75 2.75v23.749c0 4.778-3.002 9.124-7.47 10.816a2.534 2.534 0 0 0-1.638 2.37v13.42a2.534 2.534 0 1 0 5.068 0V80.176c5.513-2.808 9.109-8.561 9.109-14.832V41.595c0-3.801-2.728-6.976-6.328-7.674l6.705-23.63c1.177-4.147-1.24-8.479-5.387-9.655ZM7.82 44.345a2.753 2.753 0 0 1-2.75-2.75v-5.038c.138-3.644 5.362-3.641 5.5 0v5.038a2.752 2.752 0 0 1-2.75 2.75Zm13.317-2.75c-.137 3.64-5.36 3.645-5.499 0V30.812c.137-3.64 5.36-3.644 5.5 0v10.783Zm5.069-7.317v-3.465a7.77 7.77 0 0 0-1.246-4.226L21.591 8.318a2.753 2.753 0 0 1 2.205-3.203A2.753 2.753 0 0 1 27 7.321l4.879 26.456h-2.923c-.967 0-1.894.178-2.75.5Zm23.61-25.37-7.058 24.869h-5.717l7.484-26.37c.609-1.57 1.74-2.202 3.396-1.895a2.753 2.753 0 0 1 1.895 3.396Z" fill="#000"/></svg>